<svg width="29" height="29" viewBox="0 0 29 29" fill="none" xmlns="http://www.w3.org/2000/svg"><path d="M22.61 0H6.92A6.39 6.39 0 00.53 6.39v15.69a6.39 6.39 0 006.39 6.391h15.69a6.39 6.39 0 006.39-6.39V6.39A6.39 6.39 0 0022.61 0z" fill="#F9F9F9"/><path d="M11.44 12.316H9.16v6.671h2.279v-6.671zm-.383-3.114a1.439 1.439 0 00-1.24-.11c-.162.061-.308.15-.43.262-.124.112-.22.245-.287.392a1.103 1.103 0 00.128 1.125c.146.196.353.349.595.439.241.09.507.112.763.065.255-.047.49-.162.674-.33.184-.168.31-.381.36-.614.05-.232.024-.473-.077-.692-.1-.219-.27-.405-.486-.537zm4.039 3.113h-2.194L12.894 19h2.278v-3.3c0-.87.183-1.71 1.367-1.71 1.185 0 1.185 1 1.185 1.771v3.226h2.278v-3.66c0-1.799-.463-3.177-2.741-3.177a2.6 2.6 0 00-1.246.266 2.308 2.308 0 00-.919.809v-.91z" fill="#646464"/></svg>