<svg width="29" height="29" viewBox="0 0 29 29" fill="none" xmlns="http://www.w3.org/2000/svg"><path d="M28.469 24.517c0 1.049-.41 2.054-1.14 2.796a3.856 3.856 0 01-2.75 1.158H4.359a3.856 3.856 0 01-2.75-1.158 3.988 3.988 0 01-1.14-2.796V3.955c0-1.049.41-2.055 1.14-2.796A3.857 3.857 0 014.358 0H24.58c1.031 0 2.02.417 2.75 1.159a3.988 3.988 0 011.139 2.796v20.562z" fill="#54CE90"/><path d="M19.877 11.005c-.398.185-.901.359-1.352.416.458-.286 1.186-.881 1.352-1.42-.429.264-1.204.547-1.71.65-.404-.45-.98-.65-1.618-.65-1.226 0-2.081 1.091-2.081 2.368v.947c-1.803 0-3.561-1.443-4.655-2.842a2.369 2.369 0 00-.3 1.164c0 .862.752 1.736 1.349 2.152-.364-.012-1.053-.304-1.353-.474v.027c0 1.121.75 1.883 1.764 2.095-.185.053-.411.247-1.28.247.282.916 1.7 1.4 2.672 1.42-.76.62-2.115.948-3.156.948-.18 0-.277.01-.45-.01.981.653 2.353.957 3.606.957 4.082 0 6.31-3.277 6.31-6.333 0-.1-.003-.436-.008-.535.437-.323.613-.661.91-1.127" fill="#fff"/></svg>