<svg width="217" height="26" viewBox="0 0 217 26" fill="none" xmlns="http://www.w3.org/2000/svg"><path d="M17.61 3.85v4.68h-5.64V25H6.09V8.53H.51V3.85h17.1zm16.755 12.54c0 .46-.03.92-.09 1.38h-11.13c.06.92.31 1.61.75 2.07.46.44 1.04.66 1.74.66.98 0 1.68-.44 2.1-1.32h6.27c-.26 1.16-.77 2.2-1.53 3.12-.74.9-1.68 1.61-2.82 2.13-1.14.52-2.4.78-3.78.78-1.66 0-3.14-.35-4.44-1.05-1.28-.7-2.29-1.7-3.03-3-.72-1.3-1.08-2.83-1.08-4.59 0-1.76.36-3.28 1.08-4.56.72-1.3 1.72-2.3 3-3 1.3-.7 2.79-1.05 4.47-1.05 1.66 0 3.13.34 4.41 1.02 1.28.68 2.28 1.66 3 2.94.72 1.26 1.08 2.75 1.08 4.47zm-6-1.47c0-.72-.24-1.28-.72-1.68-.48-.42-1.08-.63-1.8-.63s-1.31.2-1.77.6c-.46.38-.76.95-.9 1.71h5.19zm17.917-6.9c1.94 0 3.48.65 4.62 1.95 1.14 1.28 1.71 3.02 1.71 5.22V25h-5.88v-9.03c0-.96-.25-1.71-.75-2.25-.5-.56-1.17-.84-2.01-.84-.88 0-1.57.28-2.07.84-.5.54-.75 1.29-.75 2.25V25h-5.88V8.17h5.88v2.4c.52-.76 1.22-1.37 2.1-1.83.88-.48 1.89-.72 3.03-.72zm7.096 8.55c0-1.74.31-3.26.93-4.56.64-1.3 1.51-2.3 2.61-3 1.1-.7 2.32-1.05 3.66-1.05 1.08 0 2.04.23 2.88.69.86.44 1.53 1.05 2.01 1.83V2.8h5.91V25h-5.91v-2.34c-.46.78-1.11 1.4-1.95 1.86-.84.46-1.83.69-2.97.69-1.34 0-2.56-.35-3.66-1.05-1.08-.7-1.94-1.7-2.58-3-.62-1.32-.93-2.85-.93-4.59zm12.12 0c0-1.08-.3-1.93-.9-2.55-.58-.62-1.3-.93-2.16-.93-.88 0-1.61.31-2.19.93-.58.6-.87 1.45-.87 2.55 0 1.08.29 1.94.87 2.58.58.62 1.31.93 2.19.93.86 0 1.58-.31 2.16-.93.6-.62.9-1.48.9-2.58zm23.81-.18c0 .46-.03.92-.09 1.38h-11.13c.06.92.31 1.61.75 2.07.46.44 1.04.66 1.74.66.98 0 1.68-.44 2.1-1.32h6.27c-.26 1.16-.77 2.2-1.53 3.12-.74.9-1.68 1.61-2.82 2.13-1.14.52-2.4.78-3.78.78-1.66 0-3.14-.35-4.44-1.05-1.28-.7-2.29-1.7-3.03-3-.72-1.3-1.08-2.83-1.08-4.59 0-1.76.36-3.28 1.08-4.56.72-1.3 1.72-2.3 3-3 1.3-.7 2.79-1.05 4.47-1.05 1.66 0 3.13.34 4.41 1.02 1.28.68 2.28 1.66 3 2.94.72 1.26 1.08 2.75 1.08 4.47zm-6-1.47c0-.72-.24-1.28-.72-1.68-.48-.42-1.08-.63-1.8-.63s-1.31.2-1.77.6c-.46.38-.76.95-.9 1.71h5.19zm12.787-3.78c.66-.96 1.46-1.72 2.4-2.28a5.82 5.82 0 013.03-.84v6.27h-1.65c-1.28 0-2.23.25-2.85.75-.62.5-.93 1.37-.93 2.61V25h-5.88V8.17h5.88v2.97zm22.652 1.92h-2.64V25h-5.91V13.06h-1.83V8.17h1.83v-.15c0-2.16.63-3.81 1.89-4.95 1.28-1.16 3.11-1.74 5.49-1.74.48 0 .85.01 1.11.03v5.01c-.16-.02-.38-.03-.66-.03-.64 0-1.11.15-1.41.45-.3.28-.47.74-.51 1.38h2.64v4.89zm3.571-6.45c-1.04 0-1.88-.28-2.52-.84-.62-.58-.93-1.3-.93-2.16 0-.88.31-1.61.93-2.19.64-.58 1.48-.87 2.52-.87 1.02 0 1.84.29 2.46.87.64.58.96 1.31.96 2.19 0 .86-.32 1.58-.96 2.16-.62.56-1.44.84-2.46.84zm2.91 1.56V25h-5.88V8.17h5.88zm12.858-.15c1.94 0 3.48.65 4.62 1.95 1.14 1.28 1.71 3.02 1.71 5.22V25h-5.88v-9.03c0-.96-.25-1.71-.75-2.25-.5-.56-1.17-.84-2.01-.84-.88 0-1.57.28-2.07.84-.5.54-.75 1.29-.75 2.25V25h-5.88V8.17h5.88v2.4c.52-.76 1.22-1.37 2.1-1.83.88-.48 1.89-.72 3.03-.72zm7.097 8.55c0-1.74.31-3.26.93-4.56.64-1.3 1.5-2.3 2.58-3 1.1-.7 2.32-1.05 3.66-1.05 1.16 0 2.16.23 3 .69.84.46 1.49 1.08 1.95 1.86V8.17h5.88V25h-5.88v-2.34c-.46.78-1.12 1.4-1.98 1.86-.84.46-1.83.69-2.97.69-1.34 0-2.56-.35-3.66-1.05-1.08-.7-1.94-1.7-2.58-3-.62-1.32-.93-2.85-.93-4.59zm12.12 0c0-1.08-.3-1.93-.9-2.55-.58-.62-1.3-.93-2.16-.93-.88 0-1.61.31-2.19.93-.58.6-.87 1.45-.87 2.55 0 1.08.29 1.94.87 2.58.58.62 1.31.93 2.19.93.86 0 1.58-.31 2.16-.93.6-.62.9-1.48.9-2.58zm18.741-8.55c1.94 0 3.48.65 4.62 1.95 1.14 1.28 1.71 3.02 1.71 5.22V25h-5.88v-9.03c0-.96-.25-1.71-.75-2.25-.5-.56-1.17-.84-2.01-.84-.88 0-1.57.28-2.07.84-.5.54-.75 1.29-.75 2.25V25h-5.88V8.17h5.88v2.4c.52-.76 1.22-1.37 2.1-1.83.88-.48 1.89-.72 3.03-.72zm7.096 8.55c0-1.74.36-3.26 1.08-4.56.72-1.3 1.72-2.3 3-3 1.3-.7 2.78-1.05 4.44-1.05 2.14 0 3.94.59 5.4 1.77 1.46 1.16 2.4 2.79 2.82 4.89h-6.24c-.36-1.1-1.06-1.65-2.1-1.65-.74 0-1.33.31-1.77.93-.42.6-.63 1.49-.63 2.67s.21 2.08.63 2.7c.44.62 1.03.93 1.77.93 1.06 0 1.76-.55 2.1-1.65h6.24c-.42 2.08-1.36 3.71-2.82 4.89-1.46 1.18-3.26 1.77-5.4 1.77-1.66 0-3.14-.35-4.44-1.05-1.28-.7-2.28-1.7-3-3-.72-1.3-1.08-2.83-1.08-4.59zm33.763-.18c0 .46-.03.92-.09 1.38h-11.13c.06.92.31 1.61.75 2.07.46.44 1.04.66 1.74.66.98 0 1.68-.44 2.1-1.32h6.27c-.26 1.16-.77 2.2-1.53 3.12-.74.9-1.68 1.61-2.82 2.13-1.14.52-2.4.78-3.78.78-1.66 0-3.14-.35-4.44-1.05-1.28-.7-2.29-1.7-3.03-3-.72-1.3-1.08-2.83-1.08-4.59 0-1.76.36-3.28 1.08-4.56.72-1.3 1.72-2.3 3-3 1.3-.7 2.79-1.05 4.47-1.05 1.66 0 3.13.34 4.41 1.02 1.28.68 2.28 1.66 3 2.94.72 1.26 1.08 2.75 1.08 4.47zm-6-1.47c0-.72-.24-1.28-.72-1.68-.48-.42-1.08-.63-1.8-.63s-1.31.2-1.77.6c-.46.38-.76.95-.9 1.71h5.19z" fill="#fff"/><path d="M104.983 25.24c-1.04 0-1.88-.28-2.52-.84-.62-.58-.93-1.31-.93-2.19 0-.88.31-1.61.93-2.19.64-.58 1.48-.87 2.52-.87 1.02 0 1.84.29 2.46.87.64.58.96 1.31.96 2.19 0 .86-.32 1.58-.96 2.16-.62.58-1.44.87-2.46.87z" fill="url(#paint0_linear_104_2075)"/><defs><linearGradient id="paint0_linear_104_2075" x1="0" y1="14.5" x2="218" y2="14.5" gradientUnits="userSpaceOnUse"><stop stop-color="#396AFC"/><stop offset="1" stop-color="#2948FF"/></linearGradient></defs></svg>