<svg width="106" height="23" viewBox="0 0 106 23" fill="none" xmlns="http://www.w3.org/2000/svg"><path d="M105.97 17v5.76H100V17h5.97z" fill="url(#paint0_linear_158_28)"/><path d="M17.61 1.27v4.71h-5.73v16.53H6V5.98H.33V1.27h17.28zm16.61 12.51c0 .42-.05.88-.15 1.38H22.94c.1 1.9.93 2.85 2.49 2.85.58 0 1.06-.14 1.44-.42.38-.28.64-.65.78-1.11h6.24a7.241 7.241 0 01-1.47 3.21c-.76.94-1.72 1.68-2.88 2.22-1.16.54-2.43.81-3.81.81-1.68 0-3.17-.34-4.47-1.02-1.28-.7-2.28-1.7-3-3-.72-1.32-1.08-2.86-1.08-4.62 0-1.76.36-3.29 1.08-4.59.72-1.3 1.73-2.29 3.03-2.97 1.3-.7 2.78-1.05 4.44-1.05 1.68 0 3.16.34 4.44 1.02a7.18 7.18 0 012.97 2.91c.72 1.26 1.08 2.72 1.08 4.38zm-6-1.08c.02-.86-.21-1.51-.69-1.95-.48-.44-1.08-.66-1.8-.66-.78 0-1.42.22-1.92.66-.48.44-.76 1.09-.84 1.95h5.25zm18.125-7.17c1.94 0 3.46.65 4.56 1.95 1.1 1.28 1.65 3.03 1.65 5.25v9.78h-5.85v-9.03c0-.98-.26-1.74-.78-2.28-.5-.56-1.18-.84-2.04-.84-.88 0-1.58.29-2.1.87-.52.56-.78 1.34-.78 2.34v8.94h-5.91V5.68h5.91V8.5c.48-.9 1.18-1.62 2.1-2.16.92-.54 2-.81 3.24-.81zm14.085-.06c1.18 0 2.2.26 3.06.78.86.5 1.5 1.2 1.92 2.1V.31h5.91v22.2h-5.91v-2.67c-.42.9-1.06 1.61-1.92 2.13-.86.5-1.88.75-3.06.75-1.34 0-2.55-.34-3.63-1.02-1.08-.7-1.93-1.7-2.55-3-.62-1.32-.93-2.86-.93-4.62 0-1.76.31-3.29.93-4.59.62-1.3 1.47-2.29 2.55-2.97 1.08-.7 2.29-1.05 3.63-1.05zm1.95 5.16c-.92 0-1.67.31-2.25.93-.56.6-.84 1.44-.84 2.52 0 1.1.28 1.96.84 2.58.58.6 1.33.9 2.25.9.88 0 1.61-.31 2.19-.93.58-.62.87-1.47.87-2.55 0-1.06-.29-1.9-.87-2.52-.58-.62-1.31-.93-2.19-.93zm26.842 3.15c0 .42-.05.88-.15 1.38h-11.13c.1 1.9.93 2.85 2.49 2.85.58 0 1.06-.14 1.44-.42.38-.28.64-.65.78-1.11h6.24a7.241 7.241 0 01-1.47 3.21c-.76.94-1.72 1.68-2.88 2.22-1.16.54-2.43.81-3.81.81-1.68 0-3.17-.34-4.47-1.02-1.28-.7-2.28-1.7-3-3-.72-1.32-1.08-2.86-1.08-4.62 0-1.76.36-3.29 1.08-4.59.72-1.3 1.73-2.29 3.03-2.97 1.3-.7 2.78-1.05 4.44-1.05 1.68 0 3.16.34 4.44 1.02a7.18 7.18 0 012.97 2.91c.72 1.26 1.08 2.72 1.08 4.38zm-6-1.08c.02-.86-.21-1.51-.69-1.95-.48-.44-1.08-.66-1.8-.66-.78 0-1.42.22-1.92.66-.48.44-.76 1.09-.84 1.95h5.25zm12.785-3.87c.66-1 1.49-1.8 2.49-2.4 1-.6 2.06-.9 3.18-.9v6.3h-1.71c-1.32 0-2.31.26-2.97.78-.66.5-.99 1.38-.99 2.64v7.26h-5.91V5.68h5.91v3.15z" fill="#fff"/><defs><linearGradient id="paint0_linear_158_28" x1=".33" y1="11.535" x2="105.97" y2="11.535" gradientUnits="userSpaceOnUse"><stop stop-color="#00F5A0"/><stop offset="1" stop-color="#00D9F5"/></linearGradient></defs></svg>