<svg width="108" height="109" viewBox="0 0 108 109" fill="none" xmlns="http://www.w3.org/2000/svg"><path d="M32.237 32.746c7.096-7.37 11.337-15.893 12.717-25.557 1.385 9.664 5.642 18.188 12.763 25.558 7.615 7.88 16.66 12.602 27.118 14.156-6.366.953-12.304 3.146-17.809 6.58-6.958 4.339-12.461 10.086-16.505 17.234-2.87 5.075-4.721 10.456-5.555 16.142-1.368-9.742-5.612-18.328-12.728-25.744C24.642 53.2 15.602 48.461 5.135 46.908c10.467-1.55 19.506-6.273 27.102-14.162zM64.136 84c5.08-1.016 9.503-3.483 13.257-7.394 3.48-3.625 5.683-7.76 6.607-12.395.924 4.635 3.128 8.77 6.607 12.395 3.754 3.911 8.177 6.378 13.257 7.394-5.08 1.016-9.503 3.483-13.257 7.394-3.48 3.625-5.683 7.76-6.607 12.396-.924-4.636-3.128-8.771-6.607-12.396-3.754-3.911-8.177-6.378-13.257-7.394z" stroke="#fff"/></svg>